<?xml version="1.0"?>
<svg width="20" height="20" xmlns="http://www.w3.org/2000/svg" xmlns:svg="http://www.w3.org/2000/svg">
 <g class="layer">
  <title>Layer 1</title>
  <path d="m7.5,4.38c-0.35,0 -0.62,0.28 -0.62,0.62c0,0.35 0.27,0.63 0.62,0.63l5,0c0.35,0 0.63,-0.28 0.63,-0.63c0,-0.34 -0.28,-0.62 -0.63,-0.62l-5,0z" fill="#5929db" id="svg_1"/>
  <path clip-rule="evenodd" d="m9.94,0.06c-2.12,0 -3.79,0 -5.09,0.17c-1.34,0.16 -2.4,0.51 -3.25,1.28c-0.83,0.77 -1.21,1.74 -1.39,2.97c-0.18,1.19 -0.18,2.71 -0.17,4.65l0,4.72c-0.01,1.4 -0.01,2.5 0.1,3.33c0.09,0.82 0.29,1.57 0.9,2.06c0.48,0.4 1.08,0.66 1.72,0.72c0.81,0.08 1.56,-0.27 2.31,-0.74c0.75,-0.48 1.66,-1.21 2.8,-2.12l0.04,-0.03c0.54,-0.42 0.9,-0.71 1.19,-0.91c0.29,-0.19 0.48,-0.27 0.63,-0.29c0.2,-0.03 0.39,-0.03 0.59,0c0.15,0.02 0.33,0.1 0.63,0.29c0.29,0.2 0.65,0.49 1.19,0.91l0.04,0.03c1.14,0.91 2.05,1.64 2.8,2.12c0.75,0.48 1.5,0.82 2.31,0.74c0.64,-0.07 1.24,-0.32 1.72,-0.72c0.6,-0.49 0.81,-1.23 0.91,-2.06c0.1,-0.83 0.1,-1.93 0.1,-3.33l0,-4.72c0,-1.94 0,-3.47 -0.18,-4.65c-0.17,-1.22 -0.55,-2.2 -1.39,-2.97c-0.85,-0.77 -1.91,-1.12 -3.25,-1.28c-1.3,-0.17 -2.97,-0.17 -5.09,-0.17l-0.12,0zm-7.25,2.42c0.52,-0.47 1.2,-0.74 2.37,-0.88c1.19,-0.16 2.75,-0.16 4.94,-0.16c2.2,0 3.75,0 4.94,0.16c1.17,0.13 1.85,0.41 2.37,0.88c0.5,0.47 0.8,1.1 0.96,2.17c0.16,1.09 0.17,2.52 0.17,4.53l0,4.62c0,1.44 -0.01,2.48 -0.1,3.23c-0.09,0.77 -0.26,1.06 -0.42,1.18c-0.23,0.2 -0.54,0.33 -0.86,0.37c-0.2,0.01 -0.54,-0.06 -1.23,-0.5c-0.67,-0.43 -1.52,-1.11 -2.71,-2.07l-0.04,-0.02c-0.49,-0.39 -0.91,-0.72 -1.28,-0.97c-0.38,-0.26 -0.76,-0.44 -1.21,-0.53c-0.39,-0.07 -0.81,-0.07 -1.2,0c-0.45,0.09 -0.83,0.28 -1.21,0.53c-0.37,0.24 -0.78,0.58 -1.28,0.97l-0.04,0.02c-1.19,0.96 -2.04,1.63 -2.71,2.07c-0.69,0.44 -1.03,0.51 -1.23,0.5c-0.32,-0.03 -0.63,-0.17 -0.86,-0.37c-0.16,-0.12 -0.33,-0.41 -0.42,-1.18c-0.09,-0.76 -0.09,-1.79 -0.09,-3.23l0,-4.62c0,-2.01 0,-3.44 0.16,-4.53c0.16,-1.07 0.45,-1.7 0.96,-2.17z" fill="#5b2ae0" fill-rule="evenodd" id="svg_2"/>
 </g>
</svg>