<?xml version="1.0" standalone="no"?>
<svg xmlns:xlink="http://www.w3.org/1999/xlink" fill="#000000" width="128" height="128" viewBox="0 0 32 32" xmlns="http://www.w3.org/2000/svg">

<title fill="#5f42e8" style=""/>

<g data-name="Layer 2" id="Layer_2" fill="#5f42e8" style="">

<path d="M22.24,22H20a1,1,0,0,1,0-2h1.94l.19-.05a1,1,0,0,1,.51.05h4.57A3.47,3.47,0,0,0,28,17.77a3.09,3.09,0,0,0-3.89-3.16,1,1,0,0,1-.81-.07,1,1,0,0,1-.49-.66A7.11,7.11,0,0,0,16,8a7.11,7.11,0,0,0-6.81,5.88,1,1,0,0,1-.49.66,1,1,0,0,1-.81.07A3.09,3.09,0,0,0,4,17.77,3.47,3.47,0,0,0,4.78,20H9.4a1.06,1.06,0,0,1,.47,0L10,20h2a1,1,0,0,1,0,2H4.35a1,1,0,0,1-.69-.27A5.48,5.48,0,0,1,2,17.77a5.15,5.15,0,0,1,5.49-5.28A9,9,0,0,1,16,6a9,9,0,0,1,8.51,6.49,4,4,0,0,1,.49,0,5.16,5.16,0,0,1,5,5.31,5.48,5.48,0,0,1-1.67,4,1,1,0,0,1-.69.27h-5.4ZM9.71,20.94h0Z" fill="#5f42e8" style=""/>

<path d="M16,24a1,1,0,0,1-1-1V17a1,1,0,0,1,2,0v6A1,1,0,0,1,16,24Z" fill="#5f42e8" style=""/>

<path d="M19,19a1,1,0,0,1-.71-.29L16,16.41l-2.29,2.3a1,1,0,0,1-1.42-1.42l3-3a1,1,0,0,1,1.42,0l3,3a1,1,0,0,1,0,1.42A1,1,0,0,1,19,19Z" fill="#5f42e8" style=""/>

</g>

</svg>